<svg viewBox="0 0 1280 1280" fill="none" xmlns="http://www.w3.org/2000/svg">
<g clip-path="url(#clip0_2006_2)">
<path d="M737.344 16.5337C1037.05 16.5338 1280 259.49 1280 559.191C1280 858.892 1037.05 1101.85 737.344 1101.85C617.076 1101.85 505.948 1062.72 415.989 996.505L180.559 1231.94C139.304 1273.19 72.4185 1273.19 31.1642 1231.94C-10.0899 1190.68 -10.0899 1123.8 31.1642 1082.54L273.202 840.502C223.377 758.471 194.687 662.181 194.687 559.191C194.687 259.49 437.643 16.5337 737.344 16.5337ZM737.343 174.869C525.088 174.869 353.021 346.936 353.021 559.191C353.021 771.446 525.088 943.513 737.343 943.513C949.598 943.513 1121.67 771.446 1121.67 559.191C1121.67 346.936 949.598 174.869 737.343 174.869Z" fill="currentColor"/>
</g>
<defs>
<clipPath id="clip0_2006_2">
<rect width="1280" height="1280" fill="white" style="fill:white;fill-opacity:1;"/>
</clipPath>
</defs>
</svg>
