<svg viewBox="0 0 1280 1280" fill="none" xmlns="http://www.w3.org/2000/svg" aria-hidden="true" focusable="false">
<g clip-path="url(#clip0_2008_17)">
<path d="M737.344 16.5337C1037.05 16.5338 1280 259.49 1280 559.191C1280 858.892 1037.05 1101.85 737.344 1101.85C617.076 1101.85 505.948 1062.72 415.99 996.506L180.56 1231.94C139.306 1273.19 72.4198 1273.19 31.1654 1231.94C-10.089 1190.68 -10.089 1123.8 31.1654 1082.54L273.204 840.502C223.378 758.471 194.687 662.181 194.687 559.191C194.687 259.49 437.643 16.5337 737.344 16.5337ZM737.343 174.869C525.088 174.869 353.021 346.936 353.021 559.191C353.021 771.446 525.088 943.513 737.343 943.513C949.598 943.513 1121.67 771.446 1121.67 559.191C1121.67 346.936 949.598 174.869 737.343 174.869Z" fill="currentColor"/>
<circle cx="737.343" cy="559.191" r="384.322" fill="currentColor" fill-opacity="0.08"/>
<path d="M482.765 519.257C492.555 456.847 524.929 400.208 573.736 360.1C622.543 319.991 684.383 299.209 747.507 301.701" stroke="currentColor" stroke-width="93" stroke-linecap="round"/>
</g>
<defs>
<clipPath id="clip0_2008_17">
<rect width="1280" height="1280" fill="white" style="fill:white;fill-opacity:1;"/>
</clipPath>
</defs>
</svg>
